<svg width="36" height="72" viewBox="0 0 36 72" fill="none" xmlns="http://www.w3.org/2000/svg">
<path d="M1.08297 27.3557V27.2923L1.11928 27.2289L7.59459 7.9004C7.65511 7.66804 7.73983 7.44624 7.84876 7.235C6.26322 6.68577 5.14971 5.33383 5.14971 3.74952C5.14971 1.67936 7.07415 0 9.44641 0H26.5122C28.8844 0 30.8089 1.67936 30.8089 3.74952C30.8089 5.32327 29.6954 6.67521 28.1098 7.235C28.2067 7.44624 28.2914 7.66804 28.364 7.9004L34.8272 27.2184L34.8514 27.2817V27.3451C36.1828 32.2776 36.0375 36.0377 35.9407 38.7944C35.9286 39.164 35.9165 39.5126 35.9044 39.8294V61.1225C35.9044 67.1112 30.3126 71.9908 23.45 71.9908H12.5086C5.63384 71.9908 0.0541848 67.1112 0.0541848 61.1225V38.8049C-0.0426423 35.7842 -0.151573 32.0347 1.09508 27.3557H1.08297Z" fill="#051571"/>
<path d="M2.88707 35.0231C2.97179 35.0443 3.05652 35.0654 3.14124 35.0971C3.41962 35.1816 5.1383 35.5935 5.18671 35.6041C5.4893 35.6674 8.69669 36.2695 11.5289 35.8259C16.4187 35.0654 20.7032 32.6678 25.0605 30.7561C28.3889 29.2985 31.0637 29.4253 31.0637 29.4253C31.3784 29.4253 32.3104 29.5626 32.4556 29.5943C33.3755 34.0198 33.085 37.3679 33.0245 39.7866V61.1219C33.0245 65.7375 28.7399 69.4765 23.4386 69.4765H12.4972C7.20798 69.4765 2.92338 65.7375 2.92338 61.1219V39.0262C2.88707 37.8115 2.83866 36.4913 2.88707 35.0337V35.0231Z" fill="white"/>
</svg>
