<svg width="850" height="356" viewBox="0 0 850 356" fill="none" xmlns="http://www.w3.org/2000/svg">
<path d="M161.951 164.496C159.809 162.355 157.668 160.214 155.527 157.717C113.769 114.183 83.7885 63.1557 65.9433 8.91699C60.9466 10.3443 55.9499 11.7717 51.3101 13.199C70.2261 70.2924 101.991 123.817 146.247 169.849C148.032 171.633 149.816 173.417 151.601 175.201C169.446 193.043 188.362 208.744 207.992 222.304C211.204 218.378 214.059 214.096 216.914 209.814C197.285 196.611 179.082 181.624 161.951 164.496Z" fill="url(#paint0_linear_1_662)"/>
<path d="M447.475 281.181C366.458 281.895 285.44 257.987 216.557 209.814C213.702 214.096 210.49 218.022 207.635 222.304C279.373 272.26 363.603 296.882 447.832 296.525V281.181H447.475Z" fill="url(#paint1_linear_1_662)"/>
<path d="M445.691 281.181V296.525C527.065 296.525 608.083 272.974 678.036 225.515C675.538 221.233 673.04 216.595 670.541 212.312C603.086 258.344 524.567 281.181 445.691 281.181Z" fill="url(#paint2_linear_1_662)"/>
<path d="M819.728 23.5469C800.455 74.9309 770.118 123.103 728.717 164.496C727.646 165.567 726.575 166.637 725.505 167.708C708.373 184.479 689.814 199.466 670.541 212.669C673.04 216.951 675.538 221.59 678.036 225.872C698.737 211.955 718.367 195.898 736.569 178.056C737.64 176.985 738.353 176.272 739.424 175.201C782.253 132.381 813.66 82.7812 833.647 29.613C829.007 27.8289 824.368 25.6879 819.728 23.5469Z" fill="url(#paint3_linear_1_662)"/>
<path d="M45.2427 74.9307L76.2935 51.7365C82.7178 47.4545 87.3576 40.6747 88.4283 32.4675C90.5697 17.1237 79.8626 2.49351 64.5156 0.352513C55.9499 -0.717988 48.098 1.77986 42.0306 6.77553L13.1212 28.1855C6.34002 32.4676 1.34335 39.6042 0.27263 48.1682C-1.8688 63.512 8.83835 78.1422 24.1853 80.2832C32.0372 81.3537 39.5322 79.2127 45.2427 74.9307Z" fill="url(#paint4_radial_1_662)"/>
<path d="M88.4283 32.4677C86.2868 47.8116 71.6537 58.8734 56.3068 56.3756C40.9598 54.2346 29.8958 39.6044 32.3941 24.2606C34.5355 8.91671 49.1687 -2.14512 64.5156 0.352711C80.2194 2.49371 90.9266 16.7671 88.4283 32.4677Z" fill="#2294F2"/>
<path d="M805.808 74.9307L836.859 51.7365C843.283 47.4545 847.923 40.6747 848.994 32.4675C851.135 17.1237 840.428 2.49351 825.081 0.352513C816.516 -0.717988 808.664 1.77986 802.596 6.77553L773.687 28.1855C766.906 32.4676 761.909 39.6042 760.838 48.1682C758.697 63.512 769.404 78.1422 784.751 80.2832C792.603 81.3537 800.098 79.2127 805.808 74.9307Z" fill="url(#paint5_radial_1_662)"/>
<path d="M849.351 32.4677C847.209 47.8116 832.576 58.8734 817.229 56.3756C801.882 54.2346 790.818 39.6044 793.317 24.2606C795.458 8.91671 810.091 -2.14512 825.438 0.352711C840.785 2.49371 851.492 16.7671 849.351 32.4677Z" fill="#E7A66D"/>
<path d="M211.204 264.766L234.046 233.365C238.686 227.299 241.184 219.448 239.756 211.241C237.258 195.897 222.625 185.192 207.278 187.69C198.712 189.117 191.931 194.113 187.648 200.893L166.591 230.153C161.594 236.22 158.739 244.427 160.166 252.991C162.665 268.335 177.298 279.04 192.645 276.542C200.14 275.114 206.921 270.832 211.204 264.766Z" fill="url(#paint6_radial_1_662)"/>
<path d="M240.077 218.395C241.446 202.689 229.821 188.847 214.112 187.478C198.403 186.11 184.558 197.733 183.19 213.439C181.821 229.145 193.446 242.986 209.155 244.355C224.864 245.723 238.709 234.101 240.077 218.395Z" fill="#80C9EE"/>
<path d="M673.397 264.766L696.238 233.365C700.878 227.299 703.377 219.448 701.949 211.241C699.451 195.897 684.817 185.192 669.471 187.69C660.905 189.117 654.124 194.113 649.841 200.893L628.783 230.153C623.787 236.22 620.931 244.427 622.359 252.991C624.857 268.335 639.49 279.04 654.837 276.542C662.689 275.114 669.114 270.832 673.397 264.766Z" fill="url(#paint7_radial_1_662)"/>
<path d="M701.949 211.241C704.447 226.585 693.74 241.215 678.393 243.713C663.046 246.211 648.413 235.506 645.915 220.162C643.416 204.818 654.124 190.188 669.471 187.69C685.174 185.192 699.808 195.897 701.949 211.241Z" fill="#C13195"/>
<path d="M470.317 327.569L471.388 288.674C472.102 281.181 469.603 272.973 463.893 267.264C453.186 255.845 434.984 255.489 423.92 266.194C417.852 271.903 414.64 280.11 414.997 287.96L413.926 324.001C413.212 331.851 415.711 340.058 421.421 346.481C432.128 357.9 450.331 358.257 461.395 347.552C467.462 342.199 470.317 334.706 470.317 327.569Z" fill="url(#paint8_radial_1_662)"/>
<path d="M463.893 267.264C474.6 278.683 474.243 296.524 462.822 307.229C451.401 317.934 433.556 317.577 422.849 306.159C412.142 294.74 412.499 276.898 423.92 266.193C434.984 255.132 453.186 255.845 463.893 267.264Z" fill="#94CEA7"/>
<defs>
<linearGradient id="paint0_linear_1_662" x1="133.661" y1="222.5" x2="133.661" y2="9.11324" gradientUnits="userSpaceOnUse">
<stop stop-color="#2294F2"/>
<stop offset="0.9998" stop-color="#80C9EE"/>
</linearGradient>
<linearGradient id="paint1_linear_1_662" x1="327.476" y1="296.631" x2="327.476" y2="210.13" gradientUnits="userSpaceOnUse">
<stop stop-color="#94CEA7"/>
<stop offset="1" stop-color="#80C9EE"/>
</linearGradient>
<linearGradient id="paint2_linear_1_662" x1="561.967" y1="212.467" x2="562.337" y2="296.183" gradientUnits="userSpaceOnUse">
<stop stop-color="#C13195"/>
<stop offset="1" stop-color="#94CEA7"/>
</linearGradient>
<linearGradient id="paint3_linear_1_662" x1="752.131" y1="23.6236" x2="752.131" y2="225.761" gradientUnits="userSpaceOnUse">
<stop stop-color="#E7A66D"/>
<stop offset="1" stop-color="#C13195"/>
</linearGradient>
<radialGradient id="paint4_radial_1_662" cx="0" cy="0" r="1" gradientTransform="matrix(-8.40374 57.3309 -57.3425 -8.40204 57.4911 33.3551)" gradientUnits="userSpaceOnUse">
<stop stop-color="#464646"/>
<stop offset="0.1398" stop-color="#595959" stop-opacity="0.8602"/>
<stop offset="0.4239" stop-color="#8B8B8B" stop-opacity="0.5761"/>
<stop offset="0.8231" stop-color="#DADADA" stop-opacity="0.1769"/>
<stop offset="1" stop-color="white" stop-opacity="0"/>
</radialGradient>
<radialGradient id="paint5_radial_1_662" cx="0" cy="0" r="1" gradientTransform="matrix(-8.40369 57.3306 -57.3422 -8.40199 818.143 33.3549)" gradientUnits="userSpaceOnUse">
<stop stop-color="#464646"/>
<stop offset="0.1398" stop-color="#595959" stop-opacity="0.8602"/>
<stop offset="0.4239" stop-color="#8B8B8B" stop-opacity="0.5761"/>
<stop offset="0.8231" stop-color="#DADADA" stop-opacity="0.1769"/>
<stop offset="1" stop-color="white" stop-opacity="0"/>
</radialGradient>
<radialGradient id="paint6_radial_1_662" cx="0" cy="0" r="1" gradientTransform="matrix(9.13377 57.2194 -57.231 9.13193 210.329 221.57)" gradientUnits="userSpaceOnUse">
<stop stop-color="#464646"/>
<stop offset="0.1398" stop-color="#595959" stop-opacity="0.8602"/>
<stop offset="0.4239" stop-color="#8B8B8B" stop-opacity="0.5761"/>
<stop offset="0.8231" stop-color="#DADADA" stop-opacity="0.1769"/>
<stop offset="1" stop-color="white" stop-opacity="0"/>
</radialGradient>
<radialGradient id="paint7_radial_1_662" cx="0" cy="0" r="1" gradientTransform="matrix(9.13377 57.2194 -57.2309 9.13193 672.776 221.57)" gradientUnits="userSpaceOnUse">
<stop stop-color="#464646"/>
<stop offset="0.1398" stop-color="#595959" stop-opacity="0.8602"/>
<stop offset="0.4239" stop-color="#8B8B8B" stop-opacity="0.5761"/>
<stop offset="0.8231" stop-color="#DADADA" stop-opacity="0.1769"/>
<stop offset="1" stop-color="white" stop-opacity="0"/>
</radialGradient>
<radialGradient id="paint8_radial_1_662" cx="0" cy="0" r="1" gradientTransform="matrix(39.8199 42.1006 -42.1091 39.8119 445.378 292.15)" gradientUnits="userSpaceOnUse">
<stop stop-color="#464646"/>
<stop offset="0.1398" stop-color="#595959" stop-opacity="0.8602"/>
<stop offset="0.4239" stop-color="#8B8B8B" stop-opacity="0.5761"/>
<stop offset="0.8231" stop-color="#DADADA" stop-opacity="0.1769"/>
<stop offset="1" stop-color="white" stop-opacity="0"/>
</radialGradient>
</defs>
</svg>
